#!OML:ASF X:\für Bonn\!DataBase\2005_08_12_Daniel\c3d\Daniel.ASF
:FULLY-SPECIFIED
:DEGREES
159
root 8.70028 16.9868 1.71107 104.855 -95.1714 -113.242
lowerback 12.3732 -4.11527 -11.0835
upperback 3.57612 -7.30193 -5.22122
thorax -2.45458 -3.73536 1.68048
lowerneck 8.71285 6.82244 3.33355
upperneck 6.92414 9.01111 1.03387
head 0.822031 4.45001 -0.371724
rclavicle 4.3832e-014 3.97569e-014
rhumerus -35.5573 3.34494 -96.2297
rradius 41.3854
rwrist 17.298
rhand -20.2941 20.8366
rfingers 7.12502
rthumb 6.05584 -9.05681
lclavicle 4.3832e-014 3.97569e-014
lhumerus -24.8175 -13.9343 79.552
lradius 115.185
lwrist 12.2048
lhand -17.8815 -15.8183
lfingers 7.12502
lthumb 8.38469 13.9953
rfemur -29.8472 -2.32001 13.1903
rtibia 41.4293
rfoot -3.38691 -14.0892
rtoes -2.98861
lfemur 2.05858 -10.3337 -30.1536
ltibia 38.5525
lfoot -34.3424 12.657
ltoes -15.0132
160
root 8.79962 16.9938 1.74064 100.331 -94.9922 -108.689
lowerback 12.4899 -3.96438 -10.9512
upperback 3.55439 -7.11059 -5.24084
thorax -2.58073 -3.63494 1.582
lowerneck 8.68779 6.77852 3.15989
upperneck 6.79222 8.94489 1.08543
head 0.773395 4.41382 -0.330106
rclavicle 4.11484e-014 -3.49861e-014
rhumerus -35.5118 4.50589 -96.85
rradius 41.771
rwrist 17.649
rhand -19.8407 20.869
rfingers 7.12502
rthumb 6.49356 -9.01145
lclavicle 4.11484e-014 -3.49861e-014
lhumerus -26.2885 -13.709 80.0439
lradius 114.916
lwrist 12.1072
lhand -17.8009 -15.5527
lfingers 7.12502
lthumb 8.46249 14.2577
rfemur -29.8353 -2.61827 13.3074
rtibia 41.637
rfoot -4.48485 -12.5665
rtoes -4.95481
lfemur 1.68348 -10.6878 -30.4201
ltibia 38.6554
lfoot -34.1542 13.4906
ltoes -14.9656
161
root 8.89681 17.0006 1.76757 96.4617 -94.8809 -104.771
lowerback 12.555 -3.83332 -10.8381
upperback 3.55035 -6.93923 -5.27681
thorax -2.65658 -3.54792 1.47184
lowerneck 8.6182 6.7346 2.99308
upperneck 6.69182 8.87578 1.18017
head 0.740109 4.37682 -0.274246
rclavicle -5.74488e-014 -5.40694e-014
rhumerus -35.3739 5.46026 -97.4268
rradius 42.0595
rwrist 18.1113
rhand -19.3512 20.9525
rfingers 7.12502
rthumb 6.96614 -8.91284
lclavicle -5.74488e-014 -5.40694e-014
lhumerus -27.7678 -13.4592 80.5034
lradius 114.682
lwrist 12.005
lhand -17.6625 -15.2869
lfingers 7.12502
lthumb 8.59608 14.5181
rfemur -29.8103 -3.00719 13.4084
rtibia 42.0603
rfoot -5.89392 -10.9164
rtoes -7.06446
lfemur 1.27145 -11.0452 -30.6502
ltibia 38.7723
lfoot -33.9624 14.1785
ltoes -14.7314
162
root 8.99068 17.0069 1.79236 92.9097 -94.7885 -101.182
lowerback 12.5921 -3.72118 -10.7285
upperback 3.55464 -6.78709 -5.30416
thorax -2.70393 -3.47196 1.3709
lowerneck 8.59169 6.69486 2.79663
upperneck 6.56758 8.81206 1.26309
head 0.69227 4.34143 -0.219631
rclavicle -2.03754e-014 4.13472e-014
rhumerus -35.2555 6.23936 -97.9209
rradius 42.3268
rwrist 18.8098
rhand -18.879 21.0602
rfingers 7.12502
rthumb 7.42191 -8.78959
lclavicle -2.03754e-014 4.13472e-014
lhumerus -29.2741 -13.1689 80.9466
lradius 114.5
lwrist 11.8815
lhand -17.5083 -14.9002
lfingers 7.12502
lthumb 8.74488 14.8986
rfemur -29.7364 -3.44636 13.5234
rtibia 42.6674
rfoot -7.41757 -9.25388
rtoes -8.94441
lfemur 0.866748 -11.3762 -30.8362
ltibia 38.9106
lfoot -33.8297 14.8024
ltoes -14.6411
163
root 9.08342 17.0114 1.81518 89.8372 -94.7229 -98.0655
lowerback 12.6133 -3.6205 -10.6253
upperback 3.55457 -6.64875 -5.33574
thorax -2.74496 -3.40292 1.26898
lowerneck 8.58108 6.65124 2.59915
upperneck 6.44227 8.7427 1.36522
head 0.641005 4.303 -0.159735
rclavicle 8.91549e-014 5.56597e-014
rhumerus -35.1145 6.86106 -98.3815
rradius 42.5307
rwrist 19.5427
rhand -18.4432 21.1608
rfingers 7.12502
rthumb 7.84263 -8.67373
lclavicle 8.91549e-014 5.56597e-014
lhumerus -30.7333 -12.8792 81.3766
lradius 114.283
lwrist 11.7437
lhand -17.3063 -14.5223
lfingers 7.12502
lthumb 8.93977 15.2683
rfemur -29.6276 -3.9338 13.6399
rtibia 43.4375
rfoot -8.91772 -7.64507
rtoes -10.3872
lfemur 0.442737 -11.7398 -31.0051
ltibia 39.0792
lfoot -33.7087 15.3924
ltoes -14.4756
164
root 9.17434 17.0142 1.83664 87.1892 -94.6737 -95.3853
lowerback 12.6078 -3.53429 -10.542
upperback 3.57969 -6.52473 -5.35439
thorax -2.73872 -3.34398 1.18865
lowerneck 8.55801 6.61355 2.37962
upperneck 6.31814 8.67982 1.45853
head 0.591975 4.26765 -0.0988673
rclavicle 4.58199e-014 -3.02153e-014
rhumerus -34.9198 7.38306 -98.7867
rradius 42.6623
rwrist 20.3599
rhand -18.1012 21.2415
rfingers 7.12502
rthumb 8.17266 -8.58048
lclavicle 4.58199e-014 -3.02153e-014
lhumerus -32.1165 -12.5519 81.7854
lradius 114.068
lwrist 11.6277
lhand -17.1115 -14.0447
lfingers 7.12502
lthumb 9.12772 15.7377
rfemur -29.4652 -4.52298 13.7553
rtibia 44.3332
rfoot -10.2169 -6.12033
rtoes -10.99
lfemur 0.00209556 -12.0508 -31.1362
ltibia 39.2921
lfoot -33.5807 15.875
ltoes -14.3059
165
root 9.26388 17.0143 1.85656 84.8943 -94.6394 -93.0402
lowerback 12.5801 -3.45379 -10.4439
upperback 3.59017 -6.4058 -5.39583
thorax -2.73939 -3.28686 1.0762
lowerneck 8.54238 6.56809 2.19955
upperneck 6.23429 8.60712 1.56319
head 0.555661 4.22793 -0.0400463
rclavicle 2.76311e-014 -3.18055e-014
rhumerus -34.7635 7.73909 -99.1808
rradius 42.7844
rwrist 21.2214
rhand -17.8706 21.234
rfingers 7.12502
rthumb 8.39523 -8.57912
lclavicle 2.76311e-014 -3.18055e-014
lhumerus -33.5044 -12.2446 82.1694
lradius 113.873
lwrist 11.4943
lhand -16.892 -13.6091
lfingers 7.12502
lthumb 9.33954 16.164
rfemur -29.2761 -5.1372 13.856
rtibia 45.3281
rfoot -11.3146 -4.72941
rtoes -10.8375
lfemur -0.482932 -12.3603 -31.2435
ltibia 39.5573
lfoot -33.4951 16.2921
ltoes -14.0974
166
root 9.35254 17.0119 1.87482 83.0459 -94.6103 -91.1513
lowerback 12.5464 -3.37726 -10.3584
upperback 3.60682 -6.2913 -5.42678
thorax -2.72658 -3.23253 0.98096
lowerneck 8.57012 6.51929 2.01326
upperneck 6.10938 8.53218 1.65517
head 0.500634 4.18661 0.0134283
rclavicle -1.0794e-013 -2.38542e-014
rhumerus -34.6254 8.01587 -99.5252
rradius 42.8997
rwrist 22.0807
rhand -17.7524 21.1477
rfingers 7.12502
rthumb 8.50927 -8.66087
lclavicle -1.0794e-013 -2.38542e-014
lhumerus -34.8614 -11.9112 82.5692
lradius 113.693
lwrist 11.3591
lhand -16.6573 -13.186
lfingers 7.12502
lthumb 9.56598 16.5769
rfemur -29.036 -5.76125 13.9397
rtibia 46.3855
rfoot -12.3302 -3.48555
rtoes -10.1821
lfemur -0.995101 -12.6474 -31.3233
ltibia 39.891
lfoot -33.4324 16.6443
ltoes -13.8979
167
root 9.43949 17.0061 1.89154 81.572 -94.5726 -89.6347
lowerback 12.4802 -3.31663 -10.2753
upperback 3.64023 -6.19102 -5.44981
thorax -2.67523 -3.18735 0.893462
lowerneck 8.57601 6.48274 1.80217
upperneck 6.00515 8.46974 1.77306
head 0.453527 4.15121 0.0792633
rclavicle 4.90998e-014 2.06736e-014
rhumerus -34.4711 8.21505 -99.8442
rradius 42.9924
rwrist 22.8631
rhand -17.7352 20.9508
rfingers 7.12502
rthumb 8.52586 -8.85712
lclavicle 4.90998e-014 2.06736e-014
lhumerus -36.1271 -11.5342 82.9402
lradius 113.479
lwrist 11.2284
lhand -16.457 -12.8968
lfingers 7.12502
lthumb 9.75926 16.857
rfemur -28.7523 -6.40415 14.024
rtibia 47.4846
rfoot -13.2883 -2.39517
rtoes -9.55676
lfemur -1.54771 -12.8836 -31.3521
ltibia 40.2838
lfoot -33.4021 16.908
ltoes -13.7628
168
root 9.5259 16.9953 1.90776 80.3137 -94.5674 -88.3219
lowerback 12.4118 -3.25254 -10.2046
upperback 3.65352 -6.09047 -5.48956
thorax -2.64442 -3.14048 0.796043
lowerneck 8.59789 6.43289 1.61538
upperneck 5.91243 8.39129 1.87556
head 0.409309 4.10813 0.13673
rclavicle -1.69961e-014 1.59028e-015
rhumerus -34.3634 8.32557 -100.144
rradius 43.0614
rwrist 23.533
rhand -17.817 20.7416
rfingers 7.12502
rthumb 8.44695 -9.06952
lclavicle -1.69961e-014 1.59028e-015
lhumerus -37.3285 -11.1657 83.2798
lradius 113.238
lwrist 11.1072
lhand -16.2422 -12.6787
lfingers 7.12502
lthumb 9.96651 17.0654
rfemur -28.4354 -7.0393 14.0543
rtibia 48.6195
rfoot -14.1982 -1.43963
rtoes -8.99011
lfemur -2.14708 -13.0773 -31.3885
ltibia 40.7146
lfoot -33.3335 17.1268
ltoes -13.6186
169
root 9.61173 16.9857 1.92192 79.4696 -94.5337 -87.4256
lowerback 12.3352 -3.20049 -10.1149
upperback 3.67617 -6.00119 -5.52859
thorax -2.59969 -3.09996 0.689604
lowerneck 8.63757 6.38759 1.45953
upperneck 5.813 8.32168 1.9709
head 0.361959 4.06982 0.186463
rclavicle 1.6201e-014 -3.49861e-014
rhumerus -34.2942 8.39785 -100.439
rradius 43.1728
rwrist 24.0441
rhand -17.9442 20.481
rfingers 7.12502
rthumb 8.32414 -9.33502
lclavicle 1.6201e-014 -3.49861e-014
lhumerus -38.4295 -10.7813 83.5766
lradius 112.949
lwrist 11.0689
lhand -16.0671 -12.5533
lfingers 7.12502
lthumb 10.1354 17.1826
rfemur -28.0727 -7.65516 14.0951
rtibia 49.7768
rfoot -15.0805 -0.632041
rtoes -8.70701
lfemur -2.76464 -13.2006 -31.3529
ltibia 41.1647
lfoot -33.2444 17.2433
ltoes -13.4974
170
root 9.69629 16.9783 1.93403 78.7481 -94.527 -86.6642
lowerback 12.2563 -3.13694 -10.0832
upperback 3.70313 -5.90289 -5.5584
thorax -2.54242 -3.05562 0.622441
lowerneck 8.69247 6.33875 1.29216
upperneck 5.70649 8.24686 2.06184
head 0.30975 4.02857 0.236247
rclavicle 4.62174e-014 8.26944e-014
rhumerus -34.2607 8.42488 -100.696
rradius 43.304
rwrist 24.4089
rhand -18.1135 20.1648
rfingers 7.12502
rthumb 8.16084 -9.65762
lclavicle 4.62174e-014 8.26944e-014
lhumerus -39.4727 -10.3487 83.8902
lradius 112.621
lwrist 10.9405
lhand -15.8877 -12.5441
lfingers 7.12502
lthumb 10.3085 17.1833
rfemur -27.6776 -8.25034 14.0873
rtibia 50.9667
rfoot -15.9332 0.0982018
rtoes -8.4567
lfemur -3.36666 -13.2849 -31.3253
ltibia 41.6087
lfoot -33.161 17.3288
ltoes -13.3854
171
root 9.78042 16.9706 1.94458 78.3133 -94.4959 -86.1738
lowerback 12.1742 -3.0794 -10.0223
upperback 3.71767 -5.80924 -5.59141
thorax -2.49927 -3.01227 0.537354
lowerneck 8.75035 6.28692 1.13129
upperneck 5.61774 8.16676 2.184
head 0.261383 3.98445 0.294979
rclavicle -5.55603e-014 -3.81667e-014
rhumerus -34.2954 8.4123 -100.943
rradius 43.4885
rwrist 24.5693
rhand -18.2277 19.9716
rfingers 7.12502
rthumb 8.05055 -9.85506
lclavicle -5.55603e-014 -3.81667e-014
lhumerus -40.4586 -9.93652 84.1804
lradius 112.291
lwrist 10.9098
lhand -15.7538 -12.5651
lfingers 7.12502
lthumb 10.4377 17.1559
rfemur -27.2436 -8.83252 14.0857
rtibia 52.1528
rfoot -16.7523 0.792384
rtoes -7.99191
lfemur -3.99319 -13.3155 -31.2357
ltibia 42.0489
lfoot -33.051 17.3345
ltoes -13.3404
